D:\school\WTK\thesis\model\3dpredictsim\Results\Batchsim_tmt_linear_v2\Pog_s1_tmt_aCst_d02_k1000_ig24_act_GRF.mot
nRows=12
nColumns=19

name D:\school\WTK\thesis\model\3dpredictsim\Results\Batchsim_tmt_linear_v2\Pog_s1_tmt_aCst_d02_k1000_ig24_act_GRF.mot
datacolumns 19
datarows 12
range 0.6531460496 0.7968381806
endheader
time 	ground_force_vx	ground_force_vy	ground_force_vz	ground_force_px	ground_force_py	ground_force_pz	1_ground_force_vx	1_ground_force_vy	1_ground_force_vz	1_ground_force_px	1_ground_force_py	1_ground_force_pz	ground_torque_x	ground_torque_y	ground_torque_z	1_ground_torque_x	1_ground_torque_y	1_ground_torque_z
        0.6531460496	       81.6643989111	      343.0899324007	       -3.8795450751	        0.4408936253	        0.0000000000	        0.0431164324	      -28.8809687660	       22.6234653702	       -2.5127080631	        1.0471509413	        0.0000000000	       -0.0535134398	        0.0000000000	        0.0000000000	        0.0000000000	        0.0000000000	        0.0000000000	        0.0000000000	
        0.6662089706	       29.7982276966	      221.8161687951	        9.3918344516	        0.4810333471	        0.0000000000	        0.0393235542	     -120.2664049301	      115.7781137758	      -11.1453556595	        1.0553490623	        0.0000000000	       -0.0527643741	        0.0000000000	        0.0000000000	        0.0000000000	        0.0000000000	        0.0000000000	        0.0000000000	
        0.6792718916	       24.2000179263	      191.5216944348	        9.6312219582	        0.4825648962	        0.0000000000	        0.0388296085	      -85.3170065393	      357.7284854478	        0.3850692564	        1.0609807356	        0.0000000000	       -0.0521284618	        0.0000000000	        0.0000000000	        0.0000000000	        0.0000000000	        0.0000000000	        0.0000000000	
        0.6923348126	       22.9819576094	      150.2714995779	       11.5752136833	        0.4831237306	        0.0000000000	        0.0390720640	     -103.7266156628	      606.0164216454	       10.4734525648	        1.0639024346	        0.0000000000	       -0.0521925045	        0.0000000000	        0.0000000000	        0.0000000000	        0.0000000000	        0.0000000000	        0.0000000000	
        0.7053977336	       17.1277925977	       98.4757970053	       13.7069702814	        0.4837044052	        0.0000000000	        0.0395264605	     -165.9765383321	      838.7391938929	       19.2763705156	        1.0735336980	        0.0000000000	       -0.0541770922	        0.0000000000	        0.0000000000	        0.0000000000	        0.0000000000	        0.0000000000	        0.0000000000	
        0.7184606546	        1.4259008117	       38.6523417155	        7.7095580135	        0.4832281501	        0.0000000000	        0.0396880157	     -207.4308267320	      971.6040244985	       23.3731793592	        1.0836992357	        0.0000000000	       -0.0563842426	        0.0000000000	        0.0000000000	        0.0000000000	        0.0000000000	        0.0000000000	        0.0000000000	
        0.7315235756	        0.5063080519	       -0.4927847480	        0.0047609717	        0.0000000000	        0.0000000000	        0.0000000000	     -199.8053076352	      954.3310017040	       22.5084009007	        1.0905458532	        0.0000000000	       -0.0577127589	        0.0000000000	        0.0000000000	        0.0000000000	        0.0000000000	        0.0000000000	        0.0000000000	
        0.7445864966	        0.4260096845	       -0.3229495096	        0.0342786099	        0.0000000000	        0.0000000000	        0.0000000000	     -169.9138418726	      866.7752329794	       19.8514965069	        1.0956308745	        0.0000000000	       -0.0585830163	        0.0000000000	        0.0000000000	        0.0000000000	        0.0000000000	        0.0000000000	        0.0000000000	
        0.7576494176	       -4.6588461993	        3.0282213423	       -0.4037018390	        0.0000000000	        0.0000000000	        0.0000000000	     -147.3898236642	      786.4506637775	       16.8407576254	        1.0998318847	        0.0000000000	       -0.0591735511	        0.0000000000	        0.0000000000	        0.0000000000	        0.0000000000	        0.0000000000	        0.0000000000	
        0.7707123386	       -3.4008864998	        1.9700194941	       -0.2870904529	        0.0000000000	        0.0000000000	        0.0000000000	     -128.5795095532	      740.5340466776	       14.9836418340	        1.1039540805	        0.0000000000	       -0.0595397999	        0.0000000000	        0.0000000000	        0.0000000000	        0.0000000000	        0.0000000000	        0.0000000000	
        0.7837752596	       -2.6745150919	        1.4238836714	       -0.2063957650	        0.0000000000	        0.0000000000	        0.0000000000	     -115.6875086704	      718.4175846020	       14.7934657558	        1.1093042395	        0.0000000000	       -0.0597965153	        0.0000000000	        0.0000000000	        0.0000000000	        0.0000000000	        0.0000000000	        0.0000000000	
        0.7968381806	       -2.0353404700	        1.0191003200	       -0.1389479060	        0.0000000000	        0.0000000000	        0.0000000000	     -106.3850433057	      702.5395802290	       14.6461120364	        1.1154876439	        0.0000000000	       -0.0596130727	        0.0000000000	        0.0000000000	        0.0000000000	        0.0000000000	        0.0000000000	        0.0000000000	
